<?xml version="1.0" standalone="no"?>
<!DOCTYPE svg PUBLIC "-//W3C//DTD SVG 20010904//EN"
 "http://www.w3.org/TR/2001/REC-SVG-20010904/DTD/svg10.dtd">
<svg version="1.0" xmlns="http://www.w3.org/2000/svg"
 width="300.000000pt" height="169.000000pt" viewBox="0 0 300.000000 169.000000"
 preserveAspectRatio="xMidYMid meet">
<metadata>
Created by potrace 1.10, written by Peter Selinger 2001-2011
</metadata>
<g transform="translate(0.000000,169.000000) scale(0.100000,-0.100000)"
fill="#000000" stroke="none">
<path d="M1390 1501 c-24 -51 -29 -94 -16 -123 6 -13 3 -15 -13 -11 -27 7 -51
-13 -51 -42 0 -32 23 -48 60 -40 26 6 30 4 30 -15 0 -54 -63 -110 -125 -110
-35 0 -103 38 -110 61 -3 10 0 27 6 38 10 15 10 23 -1 36 -17 20 -49 16 -64
-8 -9 -15 -7 -22 10 -35 39 -33 34 -117 -9 -144 -25 -16 -57 -9 -57 12 0 25
34 60 58 60 15 1 15 2 -3 16 -14 11 -32 13 -63 9 -33 -5 -43 -3 -48 10 -8 20
-58 46 -107 56 l-39 7 35 -37 c88 -93 128 -154 149 -227 l22 -74 366 0 367 0
12 53 c15 69 52 131 129 217 l63 70 -33 -6 c-50 -10 -98 -34 -114 -59 -13 -20
-18 -22 -44 -12 -22 8 -35 8 -57 -2 l-28 -14 26 -9 c24 -8 49 -44 49 -68 0 -6
-14 -10 -30 -10 -23 0 -35 7 -50 33 -27 44 -27 103 1 110 16 4 20 12 17 34 -2
22 -9 29 -31 31 -34 4 -45 -19 -26 -55 13 -23 11 -27 -18 -54 -35 -31 -88 -45
-129 -35 -39 10 -84 62 -84 98 0 28 2 29 30 23 37 -8 60 8 60 40 0 28 -24 49
-49 42 -16 -4 -18 0 -14 37 4 30 -1 58 -17 94 -12 29 -26 52 -30 52 -3 0 -17
-22 -30 -49z m44 -33 c3 -13 6 -41 6 -63 0 -44 14 -65 42 -65 11 0 15 -5 12
-14 -3 -8 -13 -12 -25 -9 -10 3 -26 0 -34 -7 -12 -10 -18 -10 -29 0 -8 6 -25
10 -37 8 -12 -2 -24 3 -26 10 -3 7 3 12 14 12 30 0 43 21 43 71 0 73 20 107
34 57z m6 -279 c29 -53 116 -74 187 -44 20 8 37 14 38 13 1 -2 10 -18 19 -35
18 -36 66 -66 90 -57 19 7 19 10 2 -46 l-13 -45 -345 -3 -345 -2 -15 55 c-12
43 -13 53 -2 44 7 -6 22 -8 33 -4 25 7 81 71 81 90 0 12 7 11 33 -5 20 -13 50
-20 80 -20 42 0 53 5 90 40 23 22 45 40 49 40 4 0 12 -9 18 -21z m414 -25
c-33 -40 -39 -43 -45 -27 -12 28 -10 36 5 30 8 -3 24 5 37 19 40 42 42 26 3
-22z m-841 6 c18 0 24 -25 8 -34 -8 -5 -41 26 -56 54 -6 11 -3 10 12 -2 11
-10 27 -18 36 -18z"/>
<path d="M591 1275 c-23 -30 -36 -127 -29 -219 3 -33 2 -90 -2 -126 -3 -36 -2
-94 4 -130 13 -76 10 -143 -6 -134 -14 9 -2 -30 24 -78 17 -30 78 -89 78 -74
0 2 -16 38 -35 79 -32 66 -36 85 -39 168 -2 52 -6 123 -10 159 -4 37 -3 57 2
46 6 -13 12 10 21 76 6 53 16 109 20 124 l8 29 12 -24 c7 -13 16 -50 18 -82 4
-40 10 -59 19 -59 7 0 20 -13 28 -29 33 -63 135 -121 213 -121 13 0 26 -7 29
-15 8 -21 21 -10 44 35 l20 39 -35 -6 c-47 -8 -116 13 -158 48 -37 30 -102
148 -133 239 -10 30 -22 61 -27 68 -15 20 -44 14 -66 -13z m56 -35 c8 -29 6
-33 -22 -36 -20 -2 -25 2 -25 20 0 12 3 26 7 29 13 14 35 7 40 -13z m79 -180
c20 -39 52 -84 71 -100 38 -34 38 -36 -3 -15 -16 8 -25 15 -20 15 5 0 -3 10
-18 21 -15 12 -25 24 -22 26 3 3 -4 13 -15 22 -17 13 -45 101 -33 101 2 0 19
-32 40 -70z"/>
<path d="M2170 1268 c-5 -13 -21 -54 -36 -93 -70 -183 -133 -245 -249 -245
-30 0 -55 -3 -55 -6 0 -4 10 -24 22 -45 14 -25 24 -35 29 -28 4 7 40 20 79 30
82 21 129 52 166 110 13 21 28 39 33 39 5 0 11 23 15 50 4 28 11 63 17 78 15
39 26 14 40 -96 11 -80 11 -95 -4 -124 -10 -21 -20 -83 -26 -173 -6 -77 -13
-151 -16 -165 -6 -23 -5 -22 11 5 17 30 36 178 22 169 -12 -8 -9 11 3 23 6 6
14 44 17 83 8 118 23 91 17 -32 -9 -174 -12 -193 -50 -268 -27 -54 -32 -69
-18 -61 36 19 70 65 93 125 8 21 7 24 -7 19 -14 -5 -15 2 -9 58 15 151 18 274
6 259 -9 -12 -10 -9 -5 14 10 44 7 196 -4 234 -14 46 -29 62 -57 62 -16 0 -28
-8 -34 -22z m53 -15 c3 -5 8 -24 12 -43 7 -34 7 -35 -12 -17 -18 16 -21 16
-33 2 -18 -22 -21 -14 -9 28 9 33 31 49 42 30z m-100 -224 c-52 -64 -76 -89
-85 -89 -5 0 4 17 21 38 16 20 40 57 53 82 22 42 23 43 26 18 2 -15 -5 -36
-15 -49z"/>
<path d="M2282 1262 c7 -18 15 -32 18 -32 13 0 0 -359 -16 -437 -22 -114 -12
-125 20 -23 25 75 28 100 27 215 0 72 -4 150 -10 175 -12 54 -7 64 8 18 7 -18
23 -46 37 -63 25 -29 25 -29 19 -5 -11 38 -34 81 -68 125 -46 60 -48 61 -35
27z"/>
<path d="M512 1224 c-17 -20 -40 -59 -51 -87 l-22 -51 25 23 c13 12 31 42 41
67 9 24 20 42 25 39 7 -5 23 36 16 43 -2 1 -17 -14 -34 -34z"/>
<path d="M513 1164 c-4 -22 -8 -102 -8 -179 0 -121 3 -150 24 -215 30 -93 37
-70 17 52 -9 55 -15 150 -15 231 0 76 -2 141 -5 144 -2 3 -8 -12 -13 -33z"/>
<path d="M475 1091 c-18 -30 -27 -176 -17 -269 21 -186 32 -162 29 65 -1 117
-3 213 -4 213 -1 0 -4 -4 -8 -9z"/>
<path d="M2196 1050 c-10 -68 -9 -101 3 -113 15 -15 24 56 14 114 l-9 54 -8
-55z"/>
<path d="M2348 944 c-5 -137 -8 -165 -27 -201 -11 -23 -21 -53 -21 -65 0 -31
-53 -141 -97 -201 -27 -37 -31 -47 -16 -39 62 33 137 166 152 268 8 54 9 55
11 19 l2 -40 10 30 c14 41 16 333 2 365 -9 19 -12 -9 -16 -136z"/>
<path d="M618 1032 c-3 -31 -1 -68 4 -82 l10 -25 9 23 c10 25 1 130 -11 137
-4 3 -10 -21 -12 -53z"/>
<path d="M2385 1025 c3 -22 10 -71 15 -108 5 -42 5 -91 -1 -125 -7 -47 -6 -70
11 -127 l19 -70 -5 70 c-3 39 -7 93 -9 120 -3 39 -2 44 5 25 12 -33 3 107 -12
175 -14 66 -30 93 -23 40z"/>
<path d="M426 978 c-14 -67 -27 -188 -20 -188 13 0 51 247 40 257 -2 3 -11
-28 -20 -69z"/>
<path d="M970 1021 c0 -11 -12 -33 -26 -48 l-26 -28 16 27 c17 29 21 58 8 58
-11 0 -34 -68 -27 -80 11 -18 30 -11 50 19 11 17 21 28 24 26 2 -3 -4 -16 -13
-30 -14 -21 -14 -25 -2 -25 23 0 28 17 21 60 -7 41 -25 56 -25 21z"/>
<path d="M1851 1020 c-1 -28 43 -89 55 -78 4 5 -1 17 -12 29 -10 11 -24 33
-31 47 l-11 27 -1 -25z"/>
<path d="M1890 1014 c0 -12 9 -32 20 -45 25 -30 25 -14 0 31 -16 28 -19 31
-20 14z"/>
<path d="M665 969 c-9 -40 10 -63 24 -28 5 14 5 31 -1 42 -12 24 -15 22 -23
-14z"/>
<path d="M1834 980 c3 -14 6 -28 6 -32 0 -5 7 -8 15 -8 20 0 19 10 -6 40 l-21
25 6 -25z"/>
<path d="M2147 985 c-8 -19 1 -65 13 -65 16 0 20 32 7 57 -12 22 -15 23 -20 8z"/>
<path d="M596 942 c-3 -6 -1 -41 5 -79 5 -37 10 -91 9 -120 -1 -59 13 -119 34
-148 13 -18 14 -16 6 20 -5 22 -10 70 -10 108 0 43 -4 67 -11 67 -8 0 -10 18
-6 58 6 56 -12 118 -27 94z"/>
<path d="M700 931 c-12 -23 -8 -51 9 -51 13 0 21 41 12 58 -7 13 -11 11 -21
-7z"/>
<path d="M2113 938 c-12 -15 0 -58 17 -58 12 0 13 40 1 58 -6 11 -10 11 -18 0z"/>
<path d="M733 890 c-8 -22 -8 -33 2 -47 13 -17 14 -16 24 10 14 36 14 42 -2
55 -10 9 -16 4 -24 -18z"/>
<path d="M2074 902 c-12 -18 1 -72 16 -72 16 0 21 39 8 64 -12 23 -14 24 -24
8z"/>
<path d="M2171 893 c-9 -22 -11 -48 -6 -85 7 -47 9 -50 17 -28 5 13 8 51 6 85
l-3 60 -14 -32z"/>
<path d="M640 867 c0 -23 5 -58 11 -77 5 -19 12 -57 15 -84 3 -27 10 -59 17
-70 6 -12 14 -60 17 -108 3 -49 11 -93 17 -99 6 -6 29 -13 51 -16 49 -7 82 21
82 67 0 27 -3 30 -30 30 -27 0 -30 -3 -30 -31 0 -20 -4 -29 -12 -26 -9 2 -13
27 -13 77 0 50 4 75 13 78 8 2 12 -8 12 -32 0 -33 2 -36 30 -36 28 0 30 3 30
35 0 67 -68 98 -123 55 l-25 -20 -17 96 c-9 52 -15 110 -12 127 4 33 -10 77
-25 77 -4 0 -8 -19 -8 -43z"/>
<path d="M1044 895 c-4 -8 -4 -22 0 -30 4 -13 36 -15 195 -15 104 0 196 3 205
6 9 3 16 14 16 23 0 14 -2 14 -11 1 -7 -10 -9 -11 -7 -2 2 8 7 13 11 13 4 -1
16 -1 28 -1 11 0 17 -5 14 -10 -4 -6 -11 -8 -16 -5 -5 4 -9 -1 -9 -10 0 -14
20 -15 163 -13 l162 3 3 28 3 27 -376 0 c-325 0 -376 -2 -381 -15z m66 -10 c0
-5 5 -3 10 5 5 8 10 11 10 5 0 -5 -5 -17 -10 -25 -5 -8 -10 -10 -10 -4 0 7 -7
11 -16 10 -9 0 -19 4 -21 9 -2 6 6 11 17 11 11 0 20 -5 20 -11z m70 1 c0 14
50 13 50 -1 0 -5 5 -3 10 5 5 8 10 11 10 5 0 -5 -5 -17 -10 -25 -6 -9 -10 -11
-10 -3 0 7 -7 10 -15 7 -9 -4 -15 0 -15 7 -1 9 -6 7 -15 -5 -8 -11 -15 -15
-15 -8 0 6 -7 9 -15 6 -8 -4 -15 -2 -15 4 0 15 24 21 32 8 6 -8 8 -8 8 0z
m175 -6 c0 -10 -12 -15 -38 -15 -39 -2 -53 7 -42 25 10 16 80 7 80 -10z m34 3
c1 24 35 18 37 -6 1 -12 1 -13 -3 -2 -4 13 -6 13 -20 0 -17 -18 -33 -11 -32
13 0 14 2 13 9 -3 8 -18 9 -18 9 -2z m146 -3 c0 -7 -5 -15 -12 -17 -7 -3 -11
4 -10 16 1 23 22 23 22 1z m75 0 c8 -16 8 -18 -5 -14 -8 4 -15 11 -16 18 0 6
-4 2 -9 -9 -9 -20 -9 -20 -9 0 -1 17 -3 17 -11 5 -5 -8 -10 -10 -10 -4 0 27
46 30 60 4z m85 0 c0 -16 -51 -24 -60 -9 -11 16 5 28 33 26 16 -2 27 -8 27
-17z m72 -6 c2 -19 2 -19 -4 0 -4 15 -7 16 -14 5 -8 -12 -11 -12 -19 1 -8 13
-10 12 -10 -4 0 -11 -3 -17 -6 -13 -4 3 -4 13 -1 22 9 21 51 13 54 -11z"/>
<path d="M1280 880 c0 -5 5 -10 10 -10 6 0 10 5 10 10 0 6 -4 10 -10 10 -5 0
-10 -4 -10 -10z"/>
<path d="M1330 880 c0 -5 5 -10 10 -10 6 0 10 5 10 10 0 6 -4 10 -10 10 -5 0
-10 -4 -10 -10z"/>
<path d="M1640 880 c0 -5 5 -10 10 -10 6 0 10 5 10 10 0 6 -4 10 -10 10 -5 0
-10 -4 -10 -10z"/>
<path d="M783 863 c-9 -18 -9 -31 -2 -45 12 -23 24 -15 33 23 9 39 -15 56 -31
22z"/>
<path d="M2025 868 c-8 -32 12 -78 26 -57 13 20 11 43 -5 65 -14 18 -15 18
-21 -8z"/>
<path d="M842 856 c-11 -26 -7 -56 8 -56 12 0 21 49 12 66 -7 12 -10 10 -20
-10z"/>
<path d="M1973 865 c-14 -26 2 -74 19 -57 8 8 8 21 1 44 -8 31 -10 32 -20 13z"/>
<path d="M690 819 c0 -22 6 -61 12 -87 l13 -47 6 65 c5 62 -5 110 -23 110 -4
0 -8 -18 -8 -41z"/>
<path d="M907 854 c-10 -10 -9 -44 2 -44 13 0 23 32 13 42 -5 5 -11 5 -15 2z"/>
<path d="M1915 848 c-9 -22 4 -43 17 -30 7 7 7 16 0 29 -10 17 -11 17 -17 1z"/>
<path d="M2123 844 c-13 -22 -14 -155 -1 -148 10 7 20 83 16 129 -3 37 -4 38
-15 19z"/>
<path d="M427 810 c-10 -36 -24 -209 -17 -205 12 7 32 140 28 185 -3 37 -5 41
-11 20z"/>
<path d="M740 785 c0 -34 31 -105 37 -86 5 11 7 11 15 0 7 -11 8 -9 5 6 -2 11
-8 19 -14 18 -6 -1 -14 15 -18 37 -8 46 -25 63 -25 25z"/>
<path d="M2077 804 c-3 -5 -8 -31 -12 -59 -6 -48 -5 -49 10 -30 19 22 19 25 0
-45 -6 -20 -5 -23 5 -13 15 14 22 123 10 143 -4 6 -10 8 -13 4z"/>
<path d="M784 776 c-5 -14 25 -71 33 -62 7 7 -7 65 -18 72 -5 3 -12 -1 -15
-10z"/>
<path d="M2033 778 c-12 -16 -23 -68 -14 -68 14 0 43 62 34 71 -6 6 -14 5 -20
-3z"/>
<path d="M835 768 c-4 -9 2 -29 12 -44 l18 -28 3 28 c4 35 -23 70 -33 44z"/>
<path d="M895 768 c-4 -9 2 -29 12 -44 l18 -28 3 28 c4 35 -23 70 -33 44z"/>
<path d="M1923 768 c-14 -18 -25 -68 -15 -68 15 0 45 61 35 71 -6 6 -14 5 -20
-3z"/>
<path d="M1983 767 c-14 -17 -25 -67 -15 -67 7 0 20 21 39 62 6 13 -15 18 -24
5z"/>
<path d="M503 705 c4 -78 42 -160 103 -225 26 -28 49 -48 51 -46 2 2 -11 26
-30 53 -47 66 -83 140 -91 188 -4 22 -14 51 -22 65 -14 24 -15 22 -11 -35z"/>
<path d="M2150 729 c0 -20 -3 -50 -6 -66 -6 -29 -7 -29 -50 -23 l-44 7 -1 -36
c0 -20 -4 -45 -9 -56 -7 -16 -9 -12 -10 20 -2 60 -10 70 -53 70 l-37 0 0 -115
0 -116 28 2 27 1 -2 74 c-2 58 0 67 7 44 5 -16 12 -51 15 -77 5 -38 10 -48 24
-48 16 0 20 11 25 68 11 103 17 132 30 132 8 0 11 -11 8 -31 -3 -22 -7 -27
-13 -18 -5 9 -9 -18 -9 -66 0 -79 0 -80 25 -80 25 0 25 1 25 86 0 65 5 98 20
130 21 48 25 95 10 119 -7 11 -10 6 -10 -21z m-150 -138 c0 -10 -7 -21 -15
-25 -11 -4 -15 1 -15 19 0 16 6 25 15 25 8 0 15 -9 15 -19z"/>
<path d="M735 710 c12 -41 27 -60 20 -25 -4 17 -11 35 -17 40 -7 7 -8 2 -3
-15z"/>
<path d="M2037 711 c-4 -17 -3 -21 5 -13 5 5 8 16 6 23 -3 8 -7 3 -11 -10z"/>
<path d="M445 679 c-5 -13 -8 -65 -7 -115 2 -60 -3 -106 -13 -134 -8 -24 -13
-45 -11 -47 2 -2 16 11 31 31 19 26 27 50 31 93 3 52 3 54 -7 24 -16 -53 -20
-31 -8 57 7 52 7 87 1 98 -9 15 -10 15 -17 -7z"/>
<path d="M2371 653 c0 -27 4 -69 8 -95 4 -27 4 -48 0 -48 -4 0 -10 12 -12 28
-2 16 -5 8 -6 -21 -1 -51 14 -91 48 -121 25 -23 26 -19 5 23 -12 24 -16 59
-15 129 1 105 -5 152 -20 152 -5 0 -9 -21 -8 -47z"/>
<path d="M870 531 l0 -116 50 0 c45 0 50 2 50 23 0 14 -6 22 -17 22 -16 0 -18
11 -18 91 l0 91 -32 3 -33 3 0 -117z"/>
<path d="M999 629 c-19 -19 -21 -30 -17 -106 2 -70 6 -87 22 -99 28 -20 69
-17 97 5 22 17 24 27 24 101 0 74 -2 84 -24 101 -31 25 -76 24 -102 -2z m61
-99 c0 -47 -4 -80 -10 -80 -6 0 -10 33 -10 80 0 47 4 80 10 80 6 0 10 -33 10
-80z"/>
<path d="M1140 623 c0 -17 6 -23 21 -23 20 0 21 -5 18 -91 l-3 -92 32 -2 32
-3 0 94 c0 77 3 94 15 94 9 0 15 9 15 23 0 21 -4 22 -65 22 -61 0 -65 -1 -65
-22z"/>
<path d="M1290 530 l0 -115 30 0 c29 0 30 1 30 48 0 26 5 47 10 47 6 0 10 -21
10 -47 0 -47 1 -48 30 -48 l30 0 0 115 0 115 -30 0 c-29 0 -30 -2 -30 -42 0
-24 -4 -43 -10 -43 -5 0 -10 19 -10 43 0 40 -1 42 -30 42 l-30 0 0 -115z m50
5 c0 -8 -4 -17 -10 -20 -6 -4 -10 5 -10 20 0 15 4 24 10 20 6 -3 10 -12 10
-20z m60 -2 c0 -20 -3 -24 -11 -16 -7 7 -9 19 -6 27 10 24 17 19 17 -11z"/>
<path d="M1482 634 c-20 -14 -22 -24 -22 -103 0 -72 3 -91 18 -104 22 -20 53
-22 70 -5 7 7 12 8 12 2 0 -5 9 -10 20 -10 18 0 20 7 20 63 l0 63 -36 0 -35 0
7 -45 c4 -30 3 -45 -5 -45 -7 0 -11 28 -11 80 0 47 4 80 10 80 6 0 10 -11 10
-25 0 -21 5 -25 30 -25 25 0 30 4 30 25 0 54 -69 83 -118 49z"/>
<path d="M1623 634 c-2 -6 -2 -57 -1 -113 l3 -104 33 -2 34 -3 -4 54 c-2 33 1
53 7 51 6 -2 10 -25 11 -52 1 -45 3 -48 27 -49 26 -2 27 0 27 51 0 39 -4 55
-17 62 -17 10 -17 10 0 11 13 0 17 9 17 39 0 21 -6 43 -12 49 -18 14 -120 20
-125 6z m87 -54 c0 -29 -17 -33 -22 -5 -3 13 -3 27 0 29 9 10 22 -5 22 -24z
m-43 -52 c-3 -8 -6 -5 -6 6 -1 11 2 17 5 13 3 -3 4 -12 1 -19z"/>
<path d="M1805 640 c-1 -3 -8 -50 -15 -105 -7 -55 -13 -104 -14 -109 0 -5 14
-10 32 -11 28 -2 32 0 32 21 0 15 6 24 15 24 9 0 15 -9 15 -22 0 -19 6 -23 30
-23 17 0 30 5 29 10 0 6 -8 57 -17 114 l-17 104 -43 1 c-24 0 -45 -1 -47 -4z
m45 -34 c0 -3 -4 -8 -10 -11 -5 -3 -10 -1 -10 4 0 6 5 11 10 11 6 0 10 -2 10
-4z m10 -61 c0 -25 -4 -45 -10 -45 -11 0 -13 33 -4 68 10 34 14 27 14 -23z
m27 -77 c-3 -7 -5 -2 -5 12 0 14 2 19 5 13 2 -7 2 -19 0 -25z m-57 13 c0 -6
-4 -13 -10 -16 -5 -3 -10 1 -10 9 0 9 5 16 10 16 6 0 10 -4 10 -9z"/>
<path d="M495 573 c8 -45 58 -149 71 -146 5 1 9 -47 9 -108 0 -60 3 -109 6
-109 12 0 29 79 29 136 0 58 -21 111 -40 99 -4 -3 -20 31 -35 75 -29 88 -50
116 -40 53z"/>
<path d="M2322 583 c-5 -16 -20 -56 -32 -90 -12 -35 -26 -61 -30 -58 -4 2 -14
-3 -23 -13 -21 -23 -18 -145 5 -187 16 -30 16 -28 20 73 2 62 -1 102 -7 102
-5 0 1 7 13 16 30 21 61 84 69 139 7 51 0 58 -15 18z"/>
<path d="M2330 460 c-7 -17 -18 -34 -25 -38 -29 -16 17 -177 61 -213 16 -13
17 -12 11 5 -17 43 -38 203 -33 238 7 46 3 48 -14 8z"/>
<path d="M489 409 c0 -41 -8 -104 -18 -141 -9 -38 -15 -68 -12 -68 14 0 55 75
68 123 18 70 17 80 -12 123 l-25 37 -1 -74z"/>
</g>
</svg>
